<svg id="ePCIwtqjgS11" xmlns="http://www.w3.org/2000/svg" xmlns:xlink="http://www.w3.org/1999/xlink" viewBox="0 0 300 227" shape-rendering="geometricPrecision" text-rendering="geometricPrecision" project-id="66d3370e95554f8eb28753933b0d7301" export-id="f1c906b5848f459f8753820c34b5ebe9" cached="false"><g transform="matrix(1.445108 0 0 1.745177-67.316515-141.415608)"><g transform="translate(0 0.000001)"><path d="M45.989348,159.371425c5.12146,0,112.727462,32.600973,117.665552,34.082393c14.19925,4.25978,47.296876,17.729736,70.993145,4.33005" transform="matrix(1.00799 0 0 1.028393-1.460858-5.631187)" fill="#a53838" stroke-width="0.6"/><path d="M44.583901,157.484125c-.047299,23.386354,7.654323,38.450321,26.758679,48.188185c33.293653,16.970426,60.215208-22.586845,91.75644-18.204613c45.924354,6.380574,68.98507,44.039663,93.71592-30.152867" transform="matrix(.998172 0 0 0.987963 0.273081 2.194962)" fill="#d4517a" stroke-width="0.6"/><path d="" fill="none" stroke="#3f5787" stroke-width="0.6"/><path d="M41.710869,163.522869c-.002182,12.386959,7.93567,28.063968,17.302364,39.0272c11.338628,13.271279,18.392903,14.072939,28.967526,14.691791c10.976233.642355,41.918393-13.302765,53.562893-18.592123c10.733017-4.875329,19.991064-6.434246,32.897414-4.24259c16.501246,2.802113,25.685064,15.639515,36.509739,20.022825c22.63,9.163721,36.983474-28.764088,36.747092-50.890463" transform="matrix(1.029675 0 0 0.879727 1.205725 14.196787)" fill="#b4366a" stroke-width="0.6"/><path d="" fill="none" stroke="#3f5787" stroke-width="0.6"/><path d="M44.310165,157.470406c61.18733,0,45.687439.202157,108.11116.412599c9.796948.033027,94.144555.000005,104.198575.000005" fill="none" stroke-width="0.6"/></g><rect width="128.114985" height="35.360824" rx="3" ry="3" transform="matrix(1.655579 0 0 2.457608 44.347761 78.540937)" fill="#b4366a" stroke-width="0"/></g></svg>
